<?xml version="1.0" encoding="iso-8859-1"?>
<!-- Generator: Adobe Illustrator 19.1.0, SVG Export Plug-In . SVG Version: 6.00 Build 0)  -->
<svg version="1.1" id="Capa_1" xmlns="http://www.w3.org/2000/svg" xmlns:xlink="http://www.w3.org/1999/xlink" x="0px" y="0px"
	 viewBox="0 0 381.146 381.146" style="enable-background:new 0 0 381.146 381.146;" xml:space="preserve">
<g>
	<g>
		<path style="fill:#222222;" d="M165.547,381.146v-58.293H76.454v-39.058h89.093v-56.094H76.454v-39.058h74.792
			c-19.795-32.26-38.585-64.249-56.371-95.966S60.313,30.068,44.546,0h56.648c13.204,28.601,27.504,57.2,42.902,85.795
			c15.397,28.596,31.348,56.097,47.853,82.505c16.135-26.408,31.628-53.909,46.477-82.505C253.275,57.2,267.48,28.602,281.042,0
			H336.6c-16.136,30.437-33.094,61.511-50.874,93.222c-17.781,31.712-36.574,63.519-56.38,95.421h75.346v39.058h-89.093v56.094
			h89.093v39.058h-89.093v58.293L165.547,381.146L165.547,381.146z"/>
	</g>
	<g>
	</g>
	<g>
	</g>
	<g>
	</g>
	<g>
	</g>
	<g>
	</g>
	<g>
	</g>
	<g>
	</g>
	<g>
	</g>
	<g>
	</g>
	<g>
	</g>
	<g>
	</g>
	<g>
	</g>
	<g>
	</g>
	<g>
	</g>
	<g>
	</g>
</g>
<g>
</g>
<g>
</g>
<g>
</g>
<g>
</g>
<g>
</g>
<g>
</g>
<g>
</g>
<g>
</g>
<g>
</g>
<g>
</g>
<g>
</g>
<g>
</g>
<g>
</g>
<g>
</g>
<g>
</g>
</svg>
